<svg width="433" height="308" viewBox="0 0 433 308" fill="none" xmlns="http://www.w3.org/2000/svg">
<path d="M59.8 69.2C69.6133 69.2 78.2767 71.1933 85.79 75.1799C93.4567 79.0133 99.4367 83.8433 103.73 89.6699V71.27H130.18V228V247.07C130.18 258.723 127.727 269.073 122.82 278.12C117.913 287.32 110.783 294.527 101.43 299.74C92.23 304.953 81.19 307.56 68.31 307.56C51.1367 307.56 36.8767 303.497 25.53 295.37C14.1833 287.397 7.74333 276.51 6.21 262.71H32.2C34.1933 269.303 38.41 274.593 44.85 278.58C51.4433 282.72 59.2633 284.79 68.31 284.79C78.89 284.79 87.4 281.57 93.84 275.13C100.433 268.69 103.73 259.337 103.73 247.07V228V178.91C99.2833 184.89 93.2267 189.95 85.56 194.09C78.0467 198.077 69.46 200.07 59.8 200.07C48.76 200.07 38.64 197.31 29.44 191.79C20.3933 186.117 13.1867 178.297 7.82 168.33C2.60667 158.21 0 146.787 0 134.06C0 121.333 2.60667 110.063 7.82 100.25C13.1867 90.4366 20.3933 82.8466 29.44 77.4799C38.64 71.9599 48.76 69.2 59.8 69.2ZM103.73 134.52C103.73 125.78 101.89 118.19 98.21 111.75C94.6833 105.31 90.0067 100.403 84.18 97.0299C78.3533 93.6566 72.0667 91.9699 65.32 91.9699C58.5733 91.9699 52.2867 93.6566 46.46 97.0299C40.6333 100.25 35.88 105.08 32.2 111.52C28.6733 117.807 26.91 125.32 26.91 134.06C26.91 142.8 28.6733 150.467 32.2 157.06C35.88 163.653 40.6333 168.713 46.46 172.24C52.44 175.613 58.7267 177.3 65.32 177.3C72.0667 177.3 78.3533 175.613 84.18 172.24C90.0067 168.867 94.6833 163.96 98.21 157.52C101.89 150.927 103.73 143.26 103.73 134.52Z" fill="white"/>
<path d="M11.5701 278.12C6.66344 269.073 4.73821 258.723 4.73821 247.07V228H30.6601V247.07C30.6601 259.337 32.1447 268.56 38.738 275C45.178 281.44 55.5001 284.79 66.0801 284.79C75.1268 284.79 83.1447 283.64 89.738 279.5L66.0801 307.56C53.2001 307.56 42.1601 304.953 32.9601 299.74C23.6068 294.527 16.4768 287.32 11.5701 278.12Z" fill="white"/>
<circle cx="396.738" cy="35.5" r="25.5" stroke="white" stroke-width="20"/>
<path fill-rule="evenodd" clip-rule="evenodd" d="M179.468 128.27C186.858 111.018 211.988 105.4 234.178 105.4C234.298 104.582 234.438 106.188 234.508 105.849C235.808 99.7621 237.838 94.1244 240.598 88.9357C245.968 78.9874 253.398 71.3441 262.908 65.9858C272.568 60.6275 282.608 57.9534 295.028 57.9534C307.448 57.9534 317.648 60.5577 326.998 65.7563C336.348 70.955 343.638 78.2989 348.848 87.7882C354.058 97.1179 356.668 107.904 356.668 120.148C356.668 124.887 356.358 129.178 355.748 133H259.918C260.688 143.097 264.438 151.21 271.188 157.326C277.938 163.443 286.818 166.696 297.028 167.504C302.878 167.963 312.458 168.502 323.038 168.512C333.618 168.522 343.468 167.993 346.888 167.514C356.818 166.137 365.088 163.712 371.858 157.676C378.638 151.639 382.408 143.636 383.178 133.678V52.7712H408.838V122.941C408.838 135.773 407.738 148.097 402.348 157.905C396.808 167.564 389.258 175.108 379.708 180.546C370.008 185.834 359.188 188.039 346.878 189.466C339.928 190.274 330.988 190.484 322.258 190.504C313.408 190.524 304.468 190.264 297.018 189.546C284.998 188.379 273.018 185.874 263.358 180.516C253.848 175.008 246.338 167.354 240.818 157.566C236.968 150.431 234.378 141.511 233.298 132.8L232.808 130.804L210.738 130.944C200.468 130.944 192.648 133.548 187.278 138.747C182.068 143.946 179.458 152.976 179.458 165.828V198.457H153.238V72.0027H179.458V128.28L179.468 128.27ZM328.898 110.339H258.748C258.748 95.5812 274.578 82.4299 293.478 82.4299C315.288 82.4299 328.898 96.3895 328.898 110.339Z" fill="white"/>
<path d="M403.077 276.144C402.02 276.144 401.073 275.972 400.236 275.629C399.398 275.286 398.726 274.778 398.218 274.106C397.724 273.433 397.463 272.623 397.435 271.676H401.183C401.238 272.211 401.423 272.623 401.739 272.911C402.054 273.186 402.466 273.323 402.974 273.323C403.496 273.323 403.908 273.207 404.21 272.973C404.512 272.726 404.663 272.39 404.663 271.964C404.663 271.607 404.539 271.312 404.292 271.079C404.059 270.846 403.763 270.653 403.407 270.502C403.063 270.351 402.569 270.18 401.924 269.988C400.991 269.699 400.229 269.411 399.639 269.123C399.048 268.835 398.54 268.409 398.115 267.846C397.689 267.283 397.477 266.549 397.477 265.643C397.477 264.298 397.964 263.248 398.939 262.493C399.913 261.724 401.183 261.34 402.748 261.34C404.34 261.34 405.623 261.724 406.598 262.493C407.573 263.248 408.094 264.305 408.163 265.664H404.354C404.326 265.197 404.155 264.833 403.839 264.572C403.523 264.298 403.118 264.161 402.624 264.161C402.199 264.161 401.855 264.277 401.595 264.511C401.334 264.73 401.203 265.053 401.203 265.478C401.203 265.945 401.423 266.309 401.862 266.57C402.302 266.831 402.988 267.112 403.921 267.414C404.855 267.73 405.61 268.032 406.186 268.32C406.776 268.608 407.284 269.027 407.71 269.576C408.135 270.125 408.348 270.832 408.348 271.697C408.348 272.52 408.135 273.268 407.71 273.941C407.298 274.614 406.694 275.149 405.898 275.547C405.102 275.945 404.161 276.144 403.077 276.144Z" fill="white"/>
<path d="M390.229 264.367V267.291H394.944V270.008H390.229V273.179H395.561V276H386.708V261.546H395.561V264.367H390.229Z" fill="white"/>
<path d="M384.941 261.546V264.367H381.111V276H377.59V264.367H373.76V261.546H384.941Z" fill="white"/>
<path d="M371.99 276H368.47L362.581 267.085V276H359.06V261.546H362.581L368.47 270.503V261.546H371.99V276Z" fill="white"/>
<path d="M351.441 264.367V267.291H356.156V270.008H351.441V273.179H356.774V276H347.92V261.546H356.774V264.367H351.441Z" fill="white"/>
<path d="M341.832 266.117C341.571 265.636 341.193 265.273 340.699 265.026C340.219 264.765 339.649 264.634 338.99 264.634C337.851 264.634 336.938 265.012 336.252 265.767C335.565 266.508 335.222 267.503 335.222 268.752C335.222 270.084 335.579 271.127 336.293 271.882C337.02 272.623 338.016 272.994 339.278 272.994C340.143 272.994 340.871 272.774 341.461 272.335C342.065 271.896 342.504 271.264 342.779 270.441H338.311V267.846H345.97V271.12C345.709 271.999 345.263 272.815 344.632 273.57C344.014 274.325 343.225 274.936 342.264 275.403C341.303 275.87 340.219 276.103 339.011 276.103C337.583 276.103 336.307 275.794 335.181 275.176C334.069 274.545 333.197 273.673 332.566 272.561C331.948 271.45 331.64 270.18 331.64 268.752C331.64 267.325 331.948 266.055 332.566 264.943C333.197 263.818 334.069 262.946 335.181 262.328C336.293 261.697 337.563 261.381 338.99 261.381C340.72 261.381 342.175 261.8 343.355 262.637C344.549 263.474 345.339 264.634 345.723 266.117H341.832Z" fill="white"/>
<path d="M329.685 261.546V276H326.164V261.546H329.685Z" fill="white"/>
<path d="M319.873 273.282H324.485V276H316.352V261.546H319.873V273.282Z" fill="white"/>
<path d="M308.733 264.367V267.291H313.448V270.008H308.733V273.179H314.066V276H305.212V261.546H314.066V264.367H308.733Z" fill="white"/>
<path d="M303.445 261.546V264.367H299.616V276H296.095V264.367H292.265V261.546H303.445Z" fill="white"/>
<path d="M290.495 276H286.974L281.085 267.085V276H277.565V261.546H281.085L286.974 270.503V261.546H290.495V276Z" fill="white"/>
<path d="M275.013 261.546V276H271.492V261.546H275.013Z" fill="white"/>
<path d="M259.691 276.144C258.634 276.144 257.687 275.972 256.85 275.629C256.012 275.286 255.34 274.778 254.832 274.106C254.338 273.433 254.077 272.623 254.049 271.676H257.797C257.852 272.211 258.037 272.623 258.353 272.911C258.668 273.186 259.08 273.323 259.588 273.323C260.11 273.323 260.521 273.207 260.823 272.973C261.125 272.726 261.276 272.39 261.276 271.964C261.276 271.607 261.153 271.312 260.906 271.079C260.672 270.846 260.377 270.653 260.02 270.502C259.677 270.351 259.183 270.18 258.538 269.988C257.605 269.699 256.843 269.411 256.252 269.123C255.662 268.835 255.154 268.409 254.729 267.846C254.303 267.283 254.09 266.549 254.09 265.643C254.09 264.298 254.578 263.248 255.552 262.493C256.527 261.724 257.797 261.34 259.362 261.34C260.954 261.34 262.237 261.724 263.212 262.493C264.186 263.248 264.708 264.305 264.777 265.664H260.968C260.94 265.197 260.769 264.833 260.453 264.572C260.137 264.298 259.732 264.161 259.238 264.161C258.812 264.161 258.469 264.277 258.209 264.511C257.948 264.73 257.817 265.053 257.817 265.478C257.817 265.945 258.037 266.309 258.476 266.57C258.915 266.831 259.602 267.112 260.535 267.414C261.469 267.73 262.224 268.032 262.8 268.32C263.39 268.608 263.898 269.027 264.324 269.576C264.749 270.125 264.962 270.832 264.962 271.697C264.962 272.52 264.749 273.268 264.324 273.941C263.912 274.614 263.308 275.149 262.512 275.547C261.716 275.945 260.775 276.144 259.691 276.144Z" fill="white"/>
<path d="M248.278 273.447H242.883L242.019 276H238.333L243.563 261.546H247.64L252.869 276H249.143L248.278 273.447ZM247.372 270.729L245.581 265.437L243.81 270.729H247.372Z" fill="white"/>
<path d="M222.999 268.752C222.999 267.325 223.308 266.055 223.926 264.943C224.543 263.818 225.401 262.946 226.499 262.328C227.611 261.697 228.867 261.381 230.267 261.381C231.983 261.381 233.452 261.834 234.674 262.74C235.895 263.646 236.712 264.881 237.124 266.446H233.253C232.965 265.842 232.553 265.382 232.018 265.067C231.496 264.751 230.899 264.593 230.226 264.593C229.142 264.593 228.263 264.971 227.591 265.726C226.918 266.481 226.582 267.489 226.582 268.752C226.582 270.015 226.918 271.024 227.591 271.779C228.263 272.534 229.142 272.912 230.226 272.912C230.899 272.912 231.496 272.754 232.018 272.438C232.553 272.122 232.965 271.662 233.253 271.058H237.124C236.712 272.623 235.895 273.859 234.674 274.765C233.452 275.657 231.983 276.103 230.267 276.103C228.867 276.103 227.611 275.794 226.499 275.176C225.401 274.545 224.543 273.673 223.926 272.561C223.308 271.45 222.999 270.18 222.999 268.752Z" fill="white"/>
<path d="M221.045 261.546V276H217.524V261.546H221.045Z" fill="white"/>
<path d="M211.463 276L208.457 270.544H207.613V276H204.092V261.546H210.001C211.141 261.546 212.108 261.745 212.905 262.143C213.714 262.541 214.318 263.09 214.716 263.79C215.115 264.477 215.314 265.245 215.314 266.096C215.314 267.057 215.039 267.915 214.49 268.67C213.955 269.425 213.158 269.96 212.102 270.276L215.437 276H211.463ZM207.613 268.052H209.795C210.441 268.052 210.921 267.894 211.237 267.579C211.566 267.263 211.731 266.817 211.731 266.24C211.731 265.691 211.566 265.259 211.237 264.943C210.921 264.628 210.441 264.47 209.795 264.47H207.613V268.052Z" fill="white"/>
<path d="M202.325 261.546V264.367H198.495V276H194.974V264.367H191.145V261.546H202.325Z" fill="white"/>
<path d="M184.308 264.367V267.29H189.024V270.008H184.308V273.179H189.641V276H180.788V261.546H189.641V264.367H184.308ZM187.521 258.643L182.558 260.722V258.292L187.521 255.904V258.643Z" fill="white"/>
<path d="M174.496 273.282H179.108V276H170.975V261.546H174.496V273.282Z" fill="white"/>
<path d="M163.357 264.367V267.291H168.072V270.008H163.357V273.179H168.689V276H159.836V261.546H168.689V264.367H163.357Z" fill="white"/>
<path d="M403.077 246.144C402.02 246.144 401.073 245.972 400.236 245.629C399.398 245.286 398.726 244.778 398.218 244.106C397.724 243.433 397.463 242.623 397.435 241.676H401.183C401.238 242.211 401.423 242.623 401.739 242.911C402.054 243.186 402.466 243.323 402.974 243.323C403.496 243.323 403.908 243.207 404.21 242.973C404.512 242.726 404.663 242.39 404.663 241.964C404.663 241.607 404.539 241.312 404.292 241.079C404.059 240.846 403.763 240.653 403.407 240.502C403.063 240.351 402.569 240.18 401.924 239.988C400.991 239.699 400.229 239.411 399.639 239.123C399.048 238.835 398.54 238.409 398.115 237.846C397.689 237.283 397.477 236.549 397.477 235.643C397.477 234.298 397.964 233.248 398.939 232.493C399.913 231.724 401.183 231.34 402.748 231.34C404.34 231.34 405.623 231.724 406.598 232.493C407.573 233.248 408.094 234.305 408.163 235.664H404.354C404.326 235.197 404.155 234.833 403.839 234.572C403.523 234.298 403.118 234.161 402.624 234.161C402.199 234.161 401.855 234.277 401.595 234.511C401.334 234.73 401.203 235.053 401.203 235.478C401.203 235.945 401.423 236.309 401.862 236.57C402.302 236.831 402.988 237.112 403.921 237.414C404.855 237.73 405.61 238.032 406.186 238.32C406.776 238.608 407.284 239.027 407.71 239.576C408.135 240.125 408.348 240.832 408.348 241.697C408.348 242.52 408.135 243.268 407.71 243.941C407.298 244.614 406.694 245.149 405.898 245.547C405.102 245.945 404.161 246.144 403.077 246.144Z" fill="white"/>
<path d="M390.229 234.367V237.291H394.944V240.008H390.229V243.179H395.561V246H386.708V231.546H395.561V234.367H390.229Z" fill="white"/>
<path d="M377.163 231.546C378.687 231.546 380.018 231.848 381.157 232.452C382.297 233.056 383.175 233.907 383.793 235.005C384.424 236.089 384.74 237.345 384.74 238.773C384.74 240.187 384.424 241.443 383.793 242.541C383.175 243.639 382.29 244.49 381.137 245.094C379.998 245.698 378.673 246 377.163 246H371.748V231.546H377.163ZM376.936 242.953C378.268 242.953 379.304 242.589 380.046 241.861C380.787 241.134 381.157 240.104 381.157 238.773C381.157 237.442 380.787 236.405 380.046 235.664C379.304 234.923 378.268 234.552 376.936 234.552H375.269V242.953H376.936Z" fill="white"/>
<path d="M364.129 234.367V237.291H368.844V240.008H364.129V243.179H369.462V246H360.608V231.546H369.462V234.367H364.129Z" fill="white"/>
<path d="M354.548 246L351.542 240.544H350.697V246H347.177V231.546H353.086C354.225 231.546 355.193 231.745 355.989 232.143C356.799 232.541 357.403 233.09 357.801 233.79C358.199 234.477 358.398 235.245 358.398 236.096C358.398 237.057 358.124 237.915 357.574 238.67C357.039 239.425 356.243 239.96 355.186 240.276L358.522 246H354.548ZM350.697 238.052H352.88C353.525 238.052 354.006 237.894 354.321 237.579C354.651 237.263 354.815 236.817 354.815 236.24C354.815 235.691 354.651 235.259 354.321 234.943C354.006 234.628 353.525 234.47 352.88 234.47H350.697V238.052Z" fill="white"/>
<path d="M335.194 234.367V237.291H339.91V240.008H335.194V243.179H340.527V246H331.674V231.546H340.527V234.367H335.194Z" fill="white"/>
<path d="M322.129 231.546C323.653 231.546 324.984 231.848 326.123 232.452C327.263 233.056 328.141 233.907 328.759 235.005C329.39 236.089 329.706 237.345 329.706 238.773C329.706 240.187 329.39 241.443 328.759 242.541C328.141 243.639 327.256 244.49 326.103 245.094C324.963 245.698 323.639 246 322.129 246H316.714V231.546H322.129ZM321.902 242.953C323.234 242.953 324.27 242.589 325.012 241.861C325.753 241.134 326.123 240.104 326.123 238.773C326.123 237.442 325.753 236.405 325.012 235.664C324.27 234.923 323.234 234.552 321.902 234.552H320.235V242.953H321.902Z" fill="white"/>
<path d="M303 246.144C301.641 246.144 300.392 245.828 299.253 245.197C298.127 244.565 297.228 243.687 296.555 242.561C295.896 241.422 295.567 240.146 295.567 238.732C295.567 237.318 295.896 236.048 296.555 234.923C297.228 233.797 298.127 232.918 299.253 232.287C300.392 231.656 301.641 231.34 303 231.34C304.359 231.34 305.601 231.656 306.727 232.287C307.866 232.918 308.758 233.797 309.403 234.923C310.062 236.048 310.392 237.318 310.392 238.732C310.392 240.146 310.062 241.422 309.403 242.561C308.744 243.687 307.852 244.565 306.727 245.197C305.601 245.828 304.359 246.144 303 246.144ZM303 242.932C304.153 242.932 305.073 242.548 305.759 241.779C306.459 241.01 306.809 239.995 306.809 238.732C306.809 237.455 306.459 236.439 305.759 235.684C305.073 234.916 304.153 234.531 303 234.531C301.833 234.531 300.9 234.909 300.2 235.664C299.513 236.419 299.17 237.441 299.17 238.732C299.17 240.008 299.513 241.031 300.2 241.8C300.9 242.555 301.833 242.932 303 242.932Z" fill="white"/>
<path d="M294.331 236.199C294.331 237.037 294.139 237.805 293.754 238.505C293.37 239.192 292.78 239.748 291.984 240.173C291.188 240.599 290.199 240.811 289.019 240.811H286.836V246H283.315V231.546H289.019C290.172 231.546 291.146 231.745 291.943 232.143C292.739 232.541 293.336 233.09 293.734 233.79C294.132 234.49 294.331 235.293 294.331 236.199ZM288.751 238.011C289.424 238.011 289.925 237.853 290.254 237.538C290.584 237.222 290.748 236.776 290.748 236.199C290.748 235.623 290.584 235.177 290.254 234.861C289.925 234.545 289.424 234.387 288.751 234.387H286.836V238.011H288.751Z" fill="white"/>
<path d="M272.257 231.546V240.194C272.257 241.058 272.47 241.724 272.895 242.191C273.321 242.658 273.945 242.891 274.769 242.891C275.592 242.891 276.224 242.658 276.663 242.191C277.102 241.724 277.322 241.058 277.322 240.194V231.546H280.843V240.173C280.843 241.463 280.568 242.555 280.019 243.447C279.47 244.339 278.729 245.012 277.796 245.465C276.876 245.918 275.846 246.144 274.707 246.144C273.568 246.144 272.545 245.925 271.639 245.485C270.747 245.032 270.04 244.36 269.518 243.468C268.997 242.562 268.736 241.463 268.736 240.173V231.546H272.257Z" fill="white"/>
<path d="M262.737 246L259.731 240.544H258.887V246H255.366V231.546H261.275C262.415 231.546 263.382 231.745 264.178 232.143C264.988 232.541 265.592 233.09 265.99 233.79C266.388 234.477 266.588 235.245 266.588 236.096C266.588 237.057 266.313 237.915 265.764 238.67C265.229 239.425 264.432 239.96 263.375 240.276L266.711 246H262.737ZM258.887 238.052H261.069C261.715 238.052 262.195 237.894 262.511 237.579C262.84 237.263 263.005 236.817 263.005 236.24C263.005 235.691 262.84 235.259 262.511 234.943C262.195 234.628 261.715 234.47 261.069 234.47H258.887V238.052Z" fill="white"/>
<path d="M249.277 236.117C249.016 235.636 248.639 235.273 248.145 235.026C247.664 234.765 247.095 234.634 246.436 234.634C245.296 234.634 244.384 235.012 243.697 235.767C243.011 236.508 242.668 237.503 242.668 238.752C242.668 240.084 243.025 241.127 243.738 241.882C244.466 242.623 245.461 242.994 246.724 242.994C247.589 242.994 248.316 242.774 248.907 242.335C249.51 241.896 249.95 241.264 250.224 240.441H245.756V237.846H253.416V241.12C253.155 241.999 252.709 242.815 252.077 243.57C251.46 244.325 250.67 244.936 249.71 245.403C248.749 245.87 247.664 246.103 246.456 246.103C245.029 246.103 243.752 245.794 242.627 245.176C241.515 244.545 240.643 243.673 240.012 242.561C239.394 241.45 239.085 240.18 239.085 238.752C239.085 237.325 239.394 236.055 240.012 234.943C240.643 233.818 241.515 232.946 242.627 232.328C243.738 231.697 245.008 231.381 246.436 231.381C248.165 231.381 249.62 231.8 250.801 232.637C251.995 233.474 252.784 234.634 253.169 236.117H249.277Z" fill="white"/>
</svg>
